<?xml version="1.0" standalone="no"?>
<!DOCTYPE svg PUBLIC "-//W3C//DTD SVG 20010904//EN"
 "http://www.w3.org/TR/2001/REC-SVG-20010904/DTD/svg10.dtd">
<svg version="1.0" xmlns="http://www.w3.org/2000/svg"
 width="234.000000pt" height="216.000000pt" viewBox="0 0 234.000000 216.000000"
 preserveAspectRatio="xMidYMid meet">

<g transform="translate(0.000000,216.000000) scale(0.100000,-0.100000)"
fill="#000000" stroke="none">
<path d="M1141 2149 c-43 -17 -50 -38 -51 -136 l0 -93 35 0 c29 0 35 4 35 21
0 19 21 49 34 49 3 0 6 -16 6 -35 0 -34 2 -35 36 -35 l36 0 -4 100 c-2 72 -7
103 -18 114 -20 19 -79 28 -109 15z m48 -111 c-1 -24 -4 -34 -6 -23 -3 11 -10
23 -16 26 -12 8 -2 39 13 39 5 0 9 -19 9 -42z"/>
<path d="M990 2143 c-8 -3 -27 -17 -42 -31 -23 -21 -28 -34 -28 -74 0 -67 37
-108 103 -115 l47 -6 0 37 c0 31 -3 36 -24 36 -29 0 -58 26 -54 48 2 9 17 23
33 32 17 8 32 16 33 17 2 1 1 15 -3 32 -7 31 -26 38 -65 24z"/>
<path d="M805 2120 c-4 -6 -1 -42 6 -80 12 -67 7 -99 -10 -72 -4 8 -14 45 -21
84 l-12 70 -31 -6 c-17 -3 -32 -7 -33 -9 -1 -1 6 -42 16 -92 25 -121 63 -156
135 -123 14 6 28 23 32 37 6 23 -11 154 -24 188 -6 15 -49 18 -58 3z"/>
<path d="M1373 2115 c-91 -39 -96 -184 -8 -221 95 -39 189 67 148 168 -16 39
-55 68 -90 68 -10 -1 -33 -7 -50 -15z m71 -71 c9 -8 16 -23 16 -33 0 -26 -34
-53 -62 -49 -30 4 -37 51 -12 79 21 23 37 24 58 3z"/>
<path d="M1526 1925 c-31 -52 -60 -96 -64 -99 -4 -2 -37 2 -72 9 -161 35 -377
29 -559 -16 -250 -62 -481 -219 -594 -405 -94 -155 -117 -346 -63 -509 38
-111 101 -208 194 -297 67 -64 230 -178 254 -178 23 0 -1 20 -79 65 -163 94
-296 246 -351 398 -22 61 -26 89 -27 187 0 141 24 226 95 334 124 188 335 327
595 392 170 43 438 42 600 -1 17 -4 30 12 82 100 34 57 58 107 54 110 -5 2
-34 -38 -65 -90z"/>
<path d="M1670 1948 c3 -3 39 -20 80 -37 107 -46 206 -110 278 -182 72 -71 95
-74 31 -4 -56 61 -146 125 -246 175 -69 34 -159 64 -143 48z"/>
<path d="M613 1911 c-37 -18 -41 -36 -13 -53 24 -15 26 -34 4 -42 -27 -10 -36
-7 -29 14 4 14 2 20 -8 20 -10 0 -13 7 -10 20 4 16 2 19 -11 14 -20 -8 -20 -9
6 -55 24 -44 29 -45 63 -23 30 20 31 28 5 54 -20 20 -19 40 0 40 5 0 19 -17
30 -37 12 -21 18 -29 14 -18 -4 11 -8 32 -9 48 -2 36 -5 37 -42 18z"/>
<path d="M1640 1912 c0 -5 33 -21 73 -36 127 -50 268 -145 334 -225 11 -14 25
-23 29 -18 18 17 -127 141 -238 202 -53 29 -182 85 -195 85 -2 0 -3 -4 -3 -8z"/>
<path d="M1615 1873 c6 -5 37 -20 70 -32 101 -40 215 -113 292 -187 40 -39 73
-66 73 -59 0 16 -113 123 -172 163 -81 56 -303 153 -263 115z"/>
<path d="M525 1830 c8 -16 15 -34 15 -40 0 -19 -20 0 -34 33 -8 18 -15 26 -15
19 -2 -26 30 -72 49 -72 25 0 25 10 -1 54 -25 43 -36 48 -14 6z"/>
<path d="M1600 1831 c0 -6 5 -11 11 -11 7 0 54 -20 106 -45 108 -51 197 -112
263 -179 24 -25 49 -46 54 -46 20 0 -109 122 -176 166 -100 67 -258 137 -258
115z"/>
<path d="M440 1811 c0 -24 37 -71 56 -71 19 0 18 19 -6 58 -22 35 -50 43 -50
13z m38 -13 c14 -14 16 -42 2 -33 -14 9 -32 45 -22 45 4 0 13 -5 20 -12z"/>
<path d="M415 1790 c3 -5 8 -10 11 -10 2 0 4 5 4 10 0 6 -5 10 -11 10 -5 0 -7
-4 -4 -10z"/>
<path d="M1564 1781 c4 -6 12 -11 18 -11 23 0 204 -92 262 -134 100 -71 197
-183 244 -278 50 -103 66 -171 66 -273 -1 -291 -202 -548 -529 -678 -136 -53
-236 -71 -400 -71 -160 1 -250 17 -391 70 -51 19 -94 34 -97 34 -6 0 -187
-285 -187 -294 0 -24 28 12 105 135 68 109 91 139 104 133 176 -72 301 -98
476 -97 751 3 1191 681 774 1191 -67 81 -191 174 -304 228 -99 47 -152 64
-141 45z"/>
<path d="M380 1775 c1 -20 57 -78 69 -71 6 4 9 12 5 17 -3 5 -9 7 -14 4 -5 -3
-20 9 -34 27 -14 18 -26 29 -26 23z"/>
<path d="M314 1726 c-4 -10 6 -30 24 -50 26 -30 32 -33 42 -20 10 11 8 14 -10
14 -16 0 -20 4 -16 15 3 9 0 15 -10 15 -10 0 -14 6 -11 15 4 8 2 17 -4 20 -5
4 -12 -1 -15 -9z"/>
<path d="M787 1704 c-11 -12 -8 -755 4 -840 26 -190 107 -304 259 -366 51 -21
70 -23 280 -23 l225 0 56 28 c157 76 246 239 238 434 -2 39 0 75 4 79 4 4 7
20 7 34 0 15 7 33 15 40 11 9 15 29 14 64 -2 46 3 59 50 131 28 44 51 83 51
88 0 4 -13 7 -29 7 -22 0 -37 9 -54 33 -44 57 -79 138 -74 166 5 26 4 27 -44
29 -28 1 -58 6 -68 12 -12 6 -24 5 -38 -5 -18 -13 -26 -13 -57 0 -24 10 -36
22 -36 35 0 17 -7 20 -42 20 -39 0 -51 -7 -120 -67 l-77 -67 6 -70 c5 -58 10
-76 31 -98 23 -25 33 -28 92 -28 60 0 69 -3 94 -29 18 -18 24 -31 17 -36 -7
-4 -1 -19 19 -43 22 -27 30 -47 30 -77 0 -23 -4 -45 -10 -51 -6 -6 3 -41 27
-102 l37 -92 40 0 c36 0 44 5 70 41 15 22 30 38 33 35 3 -3 -12 -26 -32 -51
-35 -43 -41 -46 -79 -43 l-41 3 -38 90 c-34 79 -38 94 -28 121 18 49 13 77
-20 117 -17 21 -29 44 -26 51 10 26 -27 46 -81 46 l-52 0 0 -222 c0 -131 -5
-239 -11 -263 -13 -48 -68 -105 -100 -105 -32 0 -84 33 -106 67 -16 25 -18 65
-23 468 l-5 440 -201 3 c-110 1 -203 -1 -207 -4z m853 -142 c0 -8 -1 -13 -3
-11 -1 2 -9 12 -16 22 -12 15 -12 17 3 11 9 -3 16 -13 16 -22z m-26 -25 c7 -6
6 -7 -4 -4 -8 2 -16 14 -17 28 -1 19 -1 20 4 4 3 -11 10 -24 17 -28z m43 11
c-3 -8 -6 -5 -6 6 -1 11 2 17 5 13 3 -3 4 -12 1 -19z m-57 -48 c-13 -9 -13
-11 0 -20 13 -8 12 -10 -5 -11 l-20 0 20 -9 c18 -8 18 -9 2 -9 -20 -1 -32 22
-23 44 3 8 13 15 23 15 15 0 16 -2 3 -10z m160 0 c-13 -9 -13 -11 0 -20 13 -9
13 -10 0 -10 -13 0 -13 -1 0 -10 13 -8 12 -10 -2 -10 -12 0 -18 8 -18 23 0 26
7 37 24 37 6 0 4 -5 -4 -10z m-203 -32 c-3 -7 -5 -2 -5 12 0 14 2 19 5 13 2
-7 2 -19 0 -25z m89 21 c4 -8 9 -7 15 2 6 10 9 6 9 -13 0 -31 -14 -37 -24 -11
-6 15 -8 15 -16 3 -8 -12 -10 -10 -10 8 0 23 14 30 26 11z m-169 -22 c-2 -6
-9 -12 -15 -13 -7 -1 -8 0 -2 3 8 3 7 9 -1 19 -10 12 -9 13 5 8 9 -4 15 -11
13 -17z m47 -16 c-2 -3 -12 3 -22 13 -16 17 -16 18 5 5 12 -7 20 -15 17 -18z
m181 0 c-6 -5 -25 10 -25 20 0 5 6 4 14 -3 8 -7 12 -15 11 -17z m-195 -68 c0
-7 -9 -9 -22 -5 -18 5 -19 7 -6 10 11 2 15 9 12 20 -5 15 -4 15 5 2 6 -8 11
-20 11 -27z m93 17 c-3 -11 -7 -20 -9 -20 -2 0 -4 9 -4 20 0 11 4 20 9 20 5 0
7 -9 4 -20z m34 -17 c-3 -10 -5 -4 -5 12 0 17 2 24 5 18 2 -7 2 -21 0 -30z
m60 12 c1 -16 1 -16 -3 -2 -3 9 -12 17 -20 17 -17 0 -19 -26 -1 -33 7 -3 5 -6
-5 -6 -18 -1 -25 28 -11 43 13 13 38 1 40 -19z m46 17 c3 7 6 0 6 -16 1 -23
-2 -26 -13 -17 -11 9 -15 9 -19 -1 -3 -7 -6 0 -6 16 -1 23 2 26 13 17 11 -9
15 -9 19 1z m-188 -40 c-7 -8 -35 7 -35 18 0 6 7 6 20 -2 10 -7 17 -14 15 -16z
m207 -99 c3 -25 7 -28 46 -31 28 -2 42 -8 42 -17 0 -9 -14 -15 -42 -17 l-43
-3 -3 -142 c-2 -118 -5 -143 -17 -143 -13 0 -15 24 -15 145 l0 145 -40 0 c-29
0 -40 4 -40 15 0 11 11 15 40 15 35 0 40 3 40 23 0 44 27 52 32 10z"/>
<path d="M266 1682 c-8 -13 60 -75 73 -68 17 11 13 25 -14 51 -24 25 -49 32
-59 17z m54 -27 c20 -24 6 -28 -15 -5 -10 11 -13 20 -8 20 6 0 16 -7 23 -15z"/>
<path d="M204 1618 c-5 -7 7 -24 31 -45 29 -25 41 -30 47 -21 13 21 9 26 -12
21 -14 -4 -20 0 -20 11 0 10 -5 13 -17 9 -12 -5 -15 -2 -10 10 7 20 -8 32 -19
15z"/>
<path d="M208 1562 c17 -16 32 -32 32 -35 0 -14 -18 -6 -44 19 -14 15 -26 22
-26 17 0 -15 45 -53 63 -53 28 0 31 22 6 42 -41 32 -66 40 -31 10z"/>
<path d="M2071 1543 c-28 -34 -40 -63 -26 -63 10 0 83 49 90 60 5 7 -2 9 -22
4 -25 -7 -27 -6 -14 10 8 9 11 19 9 22 -3 3 -20 -12 -37 -33z"/>
<path d="M140 1517 c0 -29 40 -51 85 -48 18 1 16 5 -13 31 -34 31 -72 40 -72
17z m34 -3 c9 -3 16 -12 16 -20 0 -12 -4 -12 -20 -2 -30 19 -27 34 4 22z"/>
<path d="M2124 1497 c-15 -23 -27 -31 -44 -29 -23 2 -23 2 -4 -20 10 -13 21
-25 24 -28 3 -3 12 -18 20 -34 21 -40 35 -42 81 -11 41 27 49 46 10 26 -25
-14 -42 7 -17 21 9 5 16 14 16 19 0 6 -4 7 -10 4 -5 -3 -7 0 -4 8 3 8 -2 20
-11 27 -12 10 -18 10 -30 0 -13 -11 -14 -8 -9 19 8 39 4 39 -22 -2z m46 -42
c-7 -8 -17 -15 -22 -15 -6 0 -5 7 2 15 7 8 17 15 22 15 6 0 5 -7 -2 -15z m-20
-39 c0 -3 -4 -8 -10 -11 -5 -3 -10 -1 -10 4 0 6 5 11 10 11 6 0 10 -2 10 -4z
m20 -31 c0 -8 -4 -15 -10 -15 -5 0 -10 7 -10 15 0 8 5 15 10 15 6 0 10 -7 10
-15z"/>
<path d="M120 1485 c0 -3 15 -14 33 -25 17 -11 26 -20 19 -20 -7 0 -23 7 -35
15 -14 8 -28 11 -36 6 -14 -9 -7 -31 10 -31 6 0 7 5 4 10 -3 6 -1 10 5 10 7 0
10 -7 6 -15 -3 -10 5 -20 26 -31 27 -14 30 -14 25 -1 -3 9 1 18 9 21 23 9 16
23 -22 45 -37 22 -44 24 -44 16z"/>
<path d="M76 1415 c-3 -10 7 -22 32 -35 l37 -21 -42 6 c-52 6 -55 -6 -9 -34
39 -25 53 -27 36 -6 -10 12 -10 15 3 15 8 0 18 7 21 16 9 22 8 24 -9 24 -8 0
-15 6 -15 14 0 10 -7 12 -22 8 -14 -3 -19 -1 -14 6 3 6 2 13 -3 16 -5 3 -11
-1 -15 -9z"/>
<path d="M2205 1358 c-42 -31 -55 -48 -35 -48 27 0 100 23 100 32 0 5 -9 6
-20 3 -22 -7 -26 5 -8 23 24 24 2 18 -37 -10z"/>
<path d="M30 1281 c0 -10 81 -32 92 -25 15 10 8 25 -10 20 -9 -3 -32 -2 -50 3
-17 5 -32 6 -32 2z"/>
<path d="M2260 1254 c-19 -7 -44 -10 -54 -7 -15 4 -18 2 -12 -12 3 -9 9 -28
12 -41 8 -30 31 -31 61 -2 26 25 29 24 39 -16 6 -27 5 -29 -19 -22 -16 4 -27
2 -30 -7 -3 -9 -7 -9 -20 2 -15 12 -17 10 -17 -18 0 -23 5 -31 18 -32 10 0 12
-3 5 -6 -18 -7 -16 -21 5 -26 16 -4 16 -5 0 -6 -10 0 -18 -6 -18 -12 0 -6 8
-8 18 -5 9 3 34 8 55 12 30 5 35 9 26 20 -9 11 -9 14 0 14 7 0 9 5 6 10 -3 6
-27 10 -52 10 -52 0 -52 9 -1 17 41 6 53 17 43 40 -5 10 -9 25 -9 33 -2 23
-43 24 -63 1 -12 -15 -19 -17 -25 -8 -15 23 -8 34 32 46 22 6 40 16 40 21 0 6
-1 9 -2 9 -2 -1 -19 -7 -38 -15z"/>
<path d="M10 1196 c0 -7 10 -16 23 -20 l22 -6 -24 -13 c-39 -19 -38 -37 2 -37
20 0 42 -3 51 -6 23 -9 21 32 -1 45 -16 9 -16 10 5 11 13 0 22 6 22 15 0 18
-16 20 -23 3 -4 -10 -7 -10 -15 0 -5 7 -16 10 -25 6 -10 -3 -17 -1 -17 5 0 6
-4 11 -10 11 -5 0 -10 -6 -10 -14z m70 -56 c0 -5 -12 -10 -26 -10 -14 0 -23 4
-19 10 3 6 15 10 26 10 10 0 19 -4 19 -10z"/>
<path d="M1956 1099 c-31 -37 -33 -64 -6 -79 17 -9 22 -7 31 17 17 44 23 93
11 93 -6 0 -22 -14 -36 -31z"/>
<path d="M0 1045 c0 -11 12 -15 50 -15 38 0 50 4 50 15 0 18 -16 20 -23 3 -4
-10 -8 -9 -16 2 -10 13 -12 13 -22 0 -8 -11 -12 -12 -16 -2 -7 17 -23 15 -23
-3z"/>
<path d="M37 1013 c-18 -3 -27 -10 -27 -23 0 -13 9 -20 27 -23 27 -4 27 -4 6
-12 -23 -7 -33 -45 -12 -45 6 0 8 -7 5 -16 -5 -13 -2 -15 21 -9 42 11 48 11
50 0 2 -5 -10 -14 -26 -20 -41 -14 -53 -29 -16 -21 30 7 30 7 8 -9 -24 -17
-21 -45 4 -45 13 0 13 -2 2 -16 -12 -15 -11 -16 9 -10 13 5 22 3 22 -3 0 -6
-4 -11 -10 -11 -15 0 -12 -24 6 -46 11 -14 17 -15 21 -6 2 7 18 19 35 28 16 8
28 18 25 20 -3 3 -19 -2 -37 -11 -34 -18 -57 -10 -27 9 10 6 26 17 35 24 15
11 14 12 -8 7 -23 -6 -24 -5 -7 8 24 20 7 67 -25 68 -17 1 -19 2 -5 6 19 5 22
25 6 54 -7 15 -7 24 2 35 9 12 6 14 -22 14 -28 1 -31 2 -16 11 9 5 17 19 17
29 0 20 -6 21 -63 13z m43 -23 c-20 -13 -60 -13 -60 0 0 6 17 10 38 10 27 0
33 -3 22 -10z m-10 -60 c-19 -12 -30 -12 -30 -1 0 10 31 20 40 14 2 -2 -2 -8
-10 -13z m49 -111 c-8 -5 -23 -9 -34 -8 -18 0 -17 1 5 13 26 15 52 10 29 -5z"/>
<path d="M2220 980 c0 -14 7 -20 23 -21 20 -1 20 -2 2 -6 -53 -13 -38 -47 27
-58 52 -9 73 8 41 35 -28 23 -29 33 -3 25 11 -4 20 -2 20 4 0 6 -9 11 -19 11
-11 0 -21 6 -24 13 -3 9 -7 9 -20 -2 -14 -11 -18 -11 -23 3 -9 22 -24 20 -24
-4z m85 -60 c8 -13 -45 -13 -65 0 -11 7 -6 10 22 10 20 0 40 -4 43 -10z"/>
<path d="M2203 847 c4 -10 2 -17 -6 -17 -16 0 -44 -73 -30 -77 6 -2 19 -10 29
-18 18 -14 17 -14 -9 -15 -16 0 -26 4 -22 10 3 6 -1 10 -10 10 -10 0 -15 -7
-13 -17 2 -13 14 -19 41 -21 39 -3 43 -8 27 -32 -8 -12 -13 -11 -39 8 -40 29
-52 28 -78 -11 -27 -39 -28 -50 -8 -67 9 -8 15 -9 15 -2 0 6 -4 14 -10 17 -5
3 -10 11 -10 16 0 6 17 -3 37 -20 49 -40 71 -40 64 2 0 4 3 7 9 7 5 0 6 8 3
17 -5 12 -2 15 9 11 10 -4 20 2 28 17 11 20 11 27 -1 41 -12 15 -12 16 9 10
35 -12 26 2 -18 24 -23 12 -38 25 -35 30 4 6 18 4 36 -6 17 -8 36 -13 42 -11
7 2 -5 11 -25 20 -55 23 -50 41 10 34 38 -5 43 -4 27 5 -11 6 -33 20 -49 32
-25 17 -29 17 -23 3z m-45 -205 c21 -16 22 -20 8 -31 -16 -13 -17 -13 -20 12
-1 6 -9 11 -19 9 -10 -2 -17 3 -17 13 0 20 20 19 48 -3z"/>
<path d="M160 695 c-18 -19 -31 -37 -28 -40 3 -3 22 2 43 10 20 9 40 13 43 10
12 -12 -15 -40 -44 -46 -24 -5 -26 -7 -12 -13 24 -11 44 -2 64 29 13 20 14 28
4 39 -6 8 -18 12 -26 9 -17 -6 -18 9 -2 25 7 7 8 12 2 12 -6 0 -25 -16 -44
-35z"/>
<path d="M276 595 c4 -10 0 -15 -15 -15 -12 0 -20 -6 -18 -12 1 -7 -6 -12 -15
-10 -27 4 -22 -10 15 -46 38 -37 45 -38 63 -14 12 16 13 15 14 -5 0 -15 -6
-23 -17 -23 -13 0 -14 -3 -6 -11 16 -16 43 -3 43 20 0 26 18 37 27 15 4 -11
-2 -23 -17 -34 -15 -11 -21 -23 -17 -34 9 -22 20 -20 47 9 27 29 40 32 40 9 0
-10 -5 -14 -15 -10 -11 4 -15 0 -13 -12 2 -11 -3 -16 -14 -14 -25 4 -23 -19 2
-25 11 -3 20 -10 20 -16 0 -5 9 -2 21 9 20 18 20 18 14 -8 -5 -21 -2 -29 14
-38 12 -6 26 -8 31 -5 6 3 10 0 10 -8 0 -8 11 -22 24 -30 22 -15 25 -15 39 1
31 36 38 60 21 76 -19 19 -36 20 -53 4 -11 -11 -12 -9 -7 9 11 35 -15 40 -41
7 -26 -33 -32 -21 -7 14 24 35 9 38 -31 8 -37 -29 -49 -22 -15 9 11 10 20 23
20 30 0 16 -35 47 -43 38 -4 -3 -7 0 -7 9 0 8 -12 25 -26 37 l-26 23 -29 -28
c-16 -15 -32 -25 -35 -21 -4 4 5 16 19 28 37 29 34 45 -4 19 -39 -29 -50 -18
-14 13 16 14 25 29 21 35 -10 17 -26 15 -20 -3z m208 -239 c-9 -15 -19 -25
-21 -22 -5 5 30 56 35 51 2 -2 -4 -15 -14 -29z m72 -42 c-10 -14 -20 -23 -23
-20 -3 3 2 17 11 32 10 14 20 23 23 20 3 -3 -2 -17 -11 -32z m-33 11 c-3 -9
-8 -14 -10 -11 -3 3 -2 9 2 15 9 16 15 13 8 -4z"/>
<path d="M2034 599 c-3 -6 11 -28 32 -50 44 -46 61 -43 18 3 l-29 32 39 -23
c21 -12 41 -19 44 -16 8 8 -30 45 -40 39 -5 -3 -20 1 -33 10 -16 11 -26 12
-31 5z"/>
<path d="M2018 571 c17 -21 15 -34 -5 -23 -12 7 -22 4 -37 -9 -19 -18 -19 -21
-3 -53 20 -44 50 -62 67 -41 10 12 7 21 -19 50 -44 50 -39 56 9 10 22 -21 40
-35 40 -29 0 5 -5 15 -12 22 -7 7 -8 12 -2 12 6 0 15 -5 22 -12 7 -7 12 -8 12
-2 0 5 -19 28 -42 49 -24 22 -37 33 -30 26z m2 -109 c-15 -5 -50 36 -49 58 0
9 12 2 31 -19 21 -24 27 -36 18 -39z"/>
<path d="M1886 471 c-4 -5 -3 -17 0 -28 5 -17 4 -16 -10 1 -23 28 -20 7 4 -32
19 -31 19 -52 1 -52 -4 0 -18 18 -30 41 -13 22 -26 38 -29 34 -3 -3 0 -11 6
-17 21 -21 13 -32 -8 -13 -15 14 -23 16 -32 7 -14 -14 4 -62 34 -88 16 -15 21
-16 28 -4 4 7 4 24 -1 37 -14 36 -10 42 7 11 16 -31 35 -36 53 -14 10 12 8 21
-6 43 l-18 28 29 -23 c29 -22 46 -28 46 -14 0 4 -14 15 -31 25 -26 14 -30 22
-25 42 6 24 -7 35 -18 16z m-46 -122 c0 -16 -19 -9 -30 10 -17 33 -11 48 10
22 11 -13 20 -27 20 -32z"/>
<path d="M1760 381 c12 -24 -5 -39 -18 -15 -7 12 -17 15 -41 9 l-33 -7 21 -19
c12 -11 21 -25 21 -32 0 -7 7 -22 15 -33 13 -17 13 -14 0 25 -18 53 -18 51 -2
51 6 0 20 -19 29 -42 10 -23 21 -39 24 -36 3 4 1 16 -6 27 -7 13 -7 21 -1 21
6 0 15 -9 21 -21 7 -11 14 -19 16 -16 6 6 -43 107 -52 107 -2 0 0 -9 6 -19z"/>
<path d="M1646 352 c-6 -11 8 -99 18 -109 3 -4 6 3 6 15 0 26 15 29 24 6 4 -9
9 -15 11 -12 3 3 -8 28 -24 57 -16 29 -31 49 -35 43z"/>
<path d="M1597 333 c-14 -13 -7 -51 14 -77 29 -37 36 -25 8 13 -18 24 -20 34
-11 43 7 7 12 16 12 20 0 10 -14 11 -23 1z"/>
<path d="M724 276 c-47 -47 -48 -102 -1 -151 17 -19 44 -37 58 -40 23 -6 28
-2 37 24 10 29 9 32 -19 47 -24 12 -30 21 -27 42 3 23 8 27 41 30 30 3 40 9
48 29 16 42 5 53 -52 53 -45 0 -55 -4 -85 -34z"/>
<path d="M881 201 c-10 -78 -9 -95 4 -121 18 -35 43 -50 84 -50 51 0 67 26 80
130 6 51 10 94 9 95 -2 2 -17 6 -35 9 -35 8 -35 9 -47 -102 -5 -47 -10 -57
-23 -49 -5 4 -5 38 0 82 5 42 7 78 5 80 -2 3 -18 8 -35 11 l-30 6 -12 -91z"/>
<path d="M1405 265 c-28 -28 -31 -53 -14 -156 11 -62 14 -69 35 -69 37 0 52
10 47 31 -3 10 -1 25 5 32 13 16 4 59 -15 70 -16 10 -17 33 -2 43 16 10 26
-12 34 -74 9 -73 13 -82 39 -82 44 0 47 10 31 99 -20 112 -33 131 -91 131 -34
0 -51 -6 -69 -25z"/>
<path d="M1080 155 c0 -88 2 -98 25 -120 27 -28 61 -32 91 -11 17 12 22 12 39
0 27 -20 72 -17 95 6 17 17 20 33 20 120 l0 100 -35 0 -35 0 0 -74 c0 -41 -4
-78 -10 -81 -6 -4 -10 23 -10 74 l0 81 -40 0 -40 0 0 -80 c0 -47 -4 -80 -10
-80 -6 0 -10 33 -10 80 l0 80 -40 0 -40 0 0 -95z"/>
</g>
</svg>
