<?xml version="1.0" standalone="no"?>
<!DOCTYPE svg PUBLIC "-//W3C//DTD SVG 20010904//EN"
 "http://www.w3.org/TR/2001/REC-SVG-20010904/DTD/svg10.dtd">
<svg version="1.0" xmlns="http://www.w3.org/2000/svg"
 width="234.000000pt" height="216.000000pt" viewBox="0 0 234.000000 216.000000"
 preserveAspectRatio="xMidYMid meet">

<g transform="translate(0.000000,216.000000) scale(0.100000,-0.100000)"
fill="#000000" stroke="none">
<path d="M1153 2152 c-46 -7 -63 -46 -63 -143 l0 -89 35 0 c31 0 35 3 35 25 0
14 5 25 10 25 14 0 13 46 -2 69 -12 19 -5 51 10 51 9 0 22 -79 22 -137 0 -31
2 -33 35 -33 l35 0 0 79 c0 43 -5 92 -11 110 -10 29 -15 32 -74 45 -5 1 -20 0
-32 -2z"/>
<path d="M984 2136 c-43 -19 -64 -53 -64 -103 0 -61 39 -103 103 -110 l47 -6
0 37 c0 33 -2 36 -28 36 -50 0 -69 42 -34 73 10 10 27 17 36 17 14 0 17 5 12
23 -3 12 -6 28 -6 35 0 16 -27 15 -66 -2z"/>
<path d="M812 2121 c-12 -7 -11 -21 1 -82 10 -48 12 -77 6 -84 -15 -15 -25 8
-39 91 -13 74 -16 78 -56 66 l-21 -7 18 -90 c14 -71 24 -95 44 -112 33 -29 65
-29 99 -2 35 27 35 56 1 207 -6 23 -29 29 -53 13z"/>
<path d="M1373 2116 c-104 -47 -88 -218 22 -227 44 -3 58 2 91 35 30 30 34 40
34 85 0 41 -5 56 -27 81 -33 36 -76 45 -120 26z m71 -72 c39 -39 -6 -110 -54
-84 -25 13 -26 56 -3 82 20 22 37 23 57 2z"/>
<path d="M1532 1934 c-28 -49 -56 -95 -60 -102 -8 -11 -22 -11 -83 2 -177 36
-372 30 -565 -19 -332 -84 -590 -309 -659 -575 -22 -84 -22 -216 0 -300 48
-183 215 -384 397 -476 65 -33 84 -30 23 4 -214 118 -363 291 -410 477 -19 76
-19 204 0 280 75 294 378 533 759 600 113 19 308 19 422 0 49 -9 96 -17 104
-18 16 -2 134 186 128 205 -2 6 -27 -29 -56 -78z"/>
<path d="M1686 1942 c5 -5 40 -21 78 -37 91 -38 206 -114 273 -181 58 -57 79
-67 41 -19 -41 53 -170 146 -271 195 -92 45 -147 64 -121 42z"/>
<path d="M613 1912 c-37 -20 -41 -37 -13 -54 24 -15 26 -34 4 -42 -26 -10 -36
-7 -30 9 3 9 -1 18 -10 22 -8 3 -13 12 -10 19 3 8 -1 14 -9 14 -12 0 -12 -5
-2 -27 28 -65 31 -67 65 -49 39 20 40 29 7 58 -19 16 -22 24 -13 30 24 14 34
8 47 -28 7 -19 15 -34 17 -31 2 2 -2 19 -10 38 -7 19 -11 40 -9 47 6 15 6 15
-34 -6z"/>
<path d="M1718 1875 c112 -46 222 -115 295 -187 33 -32 62 -56 65 -53 10 10
-106 114 -183 164 -76 50 -210 111 -242 111 -10 0 20 -16 65 -35z"/>
<path d="M1613 1873 c4 -3 39 -19 78 -34 106 -41 202 -103 285 -182 41 -40 74
-67 74 -61 0 19 -137 141 -203 181 -94 57 -265 127 -234 96z"/>
<path d="M525 1830 c8 -16 15 -34 15 -40 0 -19 -21 1 -36 34 -7 17 -13 25 -14
18 0 -27 31 -72 50 -72 11 0 20 2 20 5 0 10 -40 85 -45 85 -3 0 1 -13 10 -30z"/>
<path d="M1600 1833 c0 -5 32 -20 70 -35 107 -42 205 -103 286 -180 41 -39 74
-66 74 -61 0 16 -110 116 -180 163 -36 24 -104 61 -153 82 -94 41 -97 42 -97
31z"/>
<path d="M440 1811 c0 -11 11 -33 24 -48 19 -22 27 -25 37 -16 9 9 7 19 -8 45
-22 39 -53 50 -53 19z m44 -24 c15 -24 -2 -34 -19 -11 -8 10 -15 23 -15 27 0
13 22 3 34 -16z"/>
<path d="M415 1790 c3 -5 8 -10 11 -10 2 0 4 5 4 10 0 6 -5 10 -11 10 -5 0 -7
-4 -4 -10z"/>
<path d="M1563 1784 c3 -4 42 -21 86 -39 245 -101 422 -282 487 -500 24 -81
24 -239 0 -320 -98 -330 -438 -567 -846 -591 -163 -10 -349 22 -490 82 -35 16
-64 23 -69 18 -25 -29 -181 -287 -176 -292 3 -4 9 -2 13 4 4 6 43 68 86 138
44 70 83 129 87 132 4 2 41 -9 83 -26 114 -45 260 -71 401 -72 378 -1 706 170
863 452 174 314 59 693 -278 909 -85 54 -279 137 -247 105z"/>
<path d="M380 1775 c1 -20 57 -78 69 -71 16 10 4 26 -14 19 -8 -3 -15 -1 -15
3 -1 13 -40 61 -40 49z"/>
<path d="M314 1725 c-10 -24 51 -84 68 -67 9 9 7 12 -11 12 -16 0 -21 4 -17
15 3 9 0 15 -10 15 -10 0 -14 6 -11 15 4 8 2 17 -4 20 -5 4 -12 -1 -15 -10z"/>
<path d="M787 1704 c-10 -11 -8 -716 3 -814 12 -112 32 -174 78 -246 44 -68
116 -121 202 -151 47 -15 87 -18 265 -18 l210 0 66 31 c123 59 182 134 219
280 11 42 20 106 20 141 l0 65 -40 -51 c-37 -47 -44 -51 -83 -51 l-43 0 -41
99 c-36 87 -40 102 -27 118 23 30 16 72 -17 114 -17 22 -29 46 -26 53 10 26
-27 46 -81 46 l-52 0 0 -232 c0 -205 -3 -238 -19 -274 -21 -47 -64 -84 -96
-84 -28 0 -82 36 -109 73 -20 28 -21 40 -24 465 l-2 437 -198 3 c-109 1 -201
-1 -205 -4z"/>
<path d="M266 1682 c-3 -5 10 -24 29 -42 26 -26 38 -31 47 -22 8 8 7 17 -6 36
-9 15 -20 26 -25 26 -5 0 -16 3 -24 6 -8 3 -18 1 -21 -4z m54 -27 c7 -9 10
-18 7 -22 -8 -7 -37 15 -37 28 0 14 16 11 30 -6z"/>
<path d="M1518 1663 c-31 -5 -163 -120 -162 -140 0 -7 1 -38 2 -69 2 -47 7
-60 31 -85 26 -26 36 -29 92 -29 54 0 67 -4 90 -26 15 -15 25 -32 22 -40 -3
-8 7 -28 21 -45 27 -32 37 -104 16 -125 -7 -7 2 -40 27 -102 l38 -92 37 0 c33
0 41 6 82 59 25 33 46 69 46 81 0 11 7 32 16 46 12 17 15 37 11 66 -5 37 -1
48 44 115 66 98 68 103 32 103 -37 0 -61 26 -103 109 -21 42 -30 73 -27 90 5
25 4 26 -50 28 -31 2 -61 7 -67 13 -9 6 -19 5 -34 -6 -19 -13 -25 -13 -57 0
-24 10 -35 21 -35 35 0 22 -10 23 -72 14z m106 -79 c9 -3 16 -16 15 -28 0 -20
-1 -20 -10 2 -5 13 -13 20 -19 17 -14 -9 -13 -32 3 -38 9 -4 9 -6 -1 -6 -16
-1 -26 24 -18 44 6 17 8 17 30 9z m33 -41 c-3 -10 -5 -4 -5 12 0 17 2 24 5 18
2 -7 2 -21 0 -30z m-188 -54 c-12 -7 -11 -9 1 -10 8 -1 19 -1 23 0 4 1 14 -5
22 -12 12 -12 8 -14 -27 -14 -24 0 -35 3 -27 8 11 6 10 9 -4 15 -14 5 -15 9
-6 20 6 8 16 11 21 8 6 -4 5 -10 -3 -15z m66 11 c3 -5 -1 -10 -10 -10 -9 0
-13 5 -10 10 3 6 8 10 10 10 2 0 7 -4 10 -10z m65 -5 c-10 -12 -10 -15 1 -16
12 0 12 -1 0 -6 -11 -5 -11 -7 0 -14 10 -6 8 -9 -8 -9 -17 0 -23 6 -23 23 0
27 7 37 28 37 12 0 12 -3 2 -15z m115 5 c3 -5 1 -10 -4 -10 -6 0 -11 5 -11 10
0 6 2 10 4 10 3 0 8 -4 11 -10z m55 0 c0 -5 -6 -10 -12 -10 -9 0 -8 -4 2 -10
13 -9 13 -10 0 -10 -13 0 -13 -1 0 -10 13 -8 12 -10 -2 -10 -13 0 -18 8 -18
30 0 20 5 30 15 30 8 0 15 -4 15 -10z m-213 -32 c-3 -7 -5 -2 -5 12 0 14 2 19
5 13 2 -7 2 -19 0 -25z m89 21 c4 -8 9 -7 15 2 6 10 9 6 9 -13 0 -31 -14 -37
-24 -11 -6 15 -8 15 -16 3 -8 -12 -10 -10 -10 8 0 23 14 30 26 11z m62 -33
c12 -3 12 -4 -3 -3 -11 1 -20 9 -21 17 0 8 1 10 3 3 2 -6 12 -14 21 -17z
m-102 -42 c-3 -9 -6 -23 -6 -31 0 -22 -6 -14 -14 20 -5 21 -3 27 10 27 11 0
14 -5 10 -16z m93 -23 c-1 -13 -2 -13 -6 2 -2 9 -11 17 -19 17 -17 0 -19 -26
-1 -33 7 -3 5 -6 -5 -6 -21 -1 -24 29 -6 47 14 14 39 -3 37 -27z m-188 1 c0
-15 1 -15 7 -2 6 14 9 14 24 -2 17 -17 16 -18 -15 -14 -17 2 -38 4 -44 5 -7 0
-13 5 -13 11 0 5 7 7 15 4 11 -5 13 -2 8 12 -4 12 -3 15 5 10 7 -4 12 -15 13
-24z m56 22 c-3 -3 -12 -4 -19 -1 -8 3 -5 6 6 6 11 1 17 -2 13 -5z m70 -31
c-3 -10 -5 -4 -5 12 0 17 2 24 5 18 2 -7 2 -21 0 -30z m93 25 c0 -9 4 -8 10 2
7 12 10 8 10 -14 0 -23 -3 -26 -14 -17 -11 9 -15 9 -19 -1 -3 -7 -6 -1 -6 15
-1 15 4 27 9 27 6 0 10 -6 10 -12z m38 -141 c3 -22 8 -28 25 -27 42 4 57 0 57
-15 0 -11 -11 -15 -40 -15 l-40 0 0 -145 c0 -138 -1 -145 -20 -145 -19 0 -20
7 -20 145 l0 145 -40 0 c-29 0 -40 4 -40 15 0 8 8 15 18 16 9 1 26 2 37 3 14
1 21 9 23 29 5 38 36 33 40 -6z"/>
<path d="M205 1620 c-8 -12 19 -46 48 -62 14 -7 22 -6 31 3 8 9 7 10 -7 5 -14
-4 -20 -1 -24 13 -3 13 -10 18 -21 14 -11 -5 -14 -2 -9 10 7 19 -8 33 -18 17z"/>
<path d="M210 1561 c19 -16 32 -33 28 -37 -9 -9 -58 23 -58 38 0 6 -3 8 -7 5
-3 -4 2 -16 12 -27 18 -20 18 -20 -13 -14 -26 5 -32 3 -32 -10 0 -22 56 -55
81 -49 19 5 19 6 -3 30 l-23 25 26 -7 c38 -9 48 13 18 37 -42 33 -66 41 -29 9z
m-24 -55 c10 -8 16 -17 12 -21 -8 -8 -48 13 -48 25 0 14 13 12 36 -4z"/>
<path d="M2071 1542 c-17 -22 -31 -45 -31 -51 0 -14 71 21 90 44 12 15 11 16
-16 9 -26 -7 -28 -6 -15 10 8 9 12 19 9 22 -3 3 -20 -13 -37 -34z"/>
<path d="M2141 1519 c-1 -21 -47 -63 -60 -54 -6 3 -11 2 -11 -3 0 -6 7 -13 16
-16 8 -3 12 -10 9 -16 -3 -5 -2 -10 2 -10 5 0 17 -16 27 -35 21 -39 37 -39 89
-3 31 22 30 36 -2 19 -25 -14 -42 7 -17 21 9 5 16 14 16 19 0 6 -5 7 -12 3 -7
-5 -9 -2 -5 9 8 21 -20 44 -35 29 -17 -17 -33 -15 -18 3 6 8 10 22 7 32 -4 14
-5 14 -6 2z m29 -64 c-7 -8 -17 -15 -22 -15 -6 0 -5 7 2 15 7 8 17 15 22 15 6
0 5 -7 -2 -15z m-20 -39 c0 -3 -4 -8 -10 -11 -5 -3 -10 -1 -10 4 0 6 5 11 10
11 6 0 10 -2 10 -4z m25 -25 c7 -12 -12 -24 -25 -16 -11 7 -4 25 10 25 5 0 11
-4 15 -9z"/>
<path d="M120 1485 c0 -3 15 -14 33 -25 17 -11 26 -20 19 -20 -7 0 -23 7 -36
15 -20 13 -25 13 -35 1 -9 -11 -5 -18 24 -35 39 -22 60 -27 50 -11 -3 6 -2 10
3 10 6 0 12 6 15 14 4 9 -7 22 -29 35 -37 22 -44 24 -44 16z m10 -45 c0 -5 -2
-10 -4 -10 -3 0 -8 5 -11 10 -3 6 -1 10 4 10 6 0 11 -4 11 -10z"/>
<path d="M78 1418 c-6 -14 2 -23 30 -38 l37 -21 -42 6 c-24 3 -43 1 -43 -4 0
-13 69 -55 77 -47 4 3 1 6 -5 6 -7 0 -12 7 -12 16 0 10 6 14 14 11 8 -3 17 1
20 9 3 8 -1 17 -9 20 -8 4 -15 12 -15 19 0 8 -8 11 -19 8 -13 -3 -20 1 -23 14
-3 17 -4 17 -10 1z"/>
<path d="M2198 1352 c-57 -41 -49 -52 24 -32 21 6 40 16 44 21 4 7 -1 9 -15 4
-23 -7 -28 4 -9 23 22 22 -6 12 -44 -16z"/>
<path d="M30 1281 c0 -4 20 -12 45 -18 35 -8 45 -7 49 4 4 10 -1 12 -17 8 -13
-4 -35 -1 -50 4 -15 6 -27 7 -27 2z"/>
<path d="M2251 1249 c-13 -5 -32 -7 -41 -4 -16 5 -16 1 -7 -35 13 -46 30 -51
64 -18 20 19 26 20 33 8 5 -8 12 -11 15 -8 11 11 -4 28 -24 28 -10 0 -26 -9
-36 -20 -14 -16 -20 -17 -27 -8 -12 19 -10 38 5 38 19 1 74 28 57 29 -8 0 -26
-5 -39 -10z"/>
<path d="M10 1195 c0 -8 9 -15 20 -15 26 0 26 -13 -1 -25 -34 -16 -24 -30 26
-35 38 -5 45 -3 45 12 0 9 -8 22 -17 27 -16 9 -16 10 5 11 13 0 22 6 22 15 0
18 -16 20 -23 3 -4 -10 -7 -10 -15 0 -5 7 -16 10 -25 6 -10 -3 -17 -1 -17 5 0
6 -4 11 -10 11 -5 0 -10 -7 -10 -15z m70 -55 c0 -5 -12 -10 -26 -10 -14 0 -23
4 -19 10 3 6 15 10 26 10 10 0 19 -4 19 -10z"/>
<path d="M2302 1153 c-9 -13 -14 -15 -18 -5 -3 6 -10 12 -15 12 -6 0 -7 -4 -4
-10 3 -5 -3 -10 -14 -10 -10 0 -22 6 -24 13 -3 6 -6 -3 -6 -20 -1 -24 3 -33
15 -33 13 0 14 -3 5 -14 -10 -11 -8 -15 6 -19 17 -4 17 -5 1 -6 -10 0 -18 -5
-18 -10 0 -4 19 -5 43 0 23 4 45 8 48 9 4 0 7 11 7 25 0 23 -4 25 -45 25 -27
0 -42 4 -38 10 3 6 17 10 30 10 34 0 55 10 55 26 0 19 -13 18 -28 -3z"/>
<path d="M1956 1099 c-31 -37 -32 -50 -6 -74 19 -17 20 -17 31 11 17 45 23 94
11 94 -6 0 -22 -14 -36 -31z"/>
<path d="M0 1045 c0 -11 12 -15 50 -15 38 0 50 4 50 15 0 18 -17 20 -23 3 -3
-10 -7 -10 -19 0 -13 10 -17 10 -22 0 -5 -10 -7 -10 -12 0 -8 17 -24 15 -24
-3z"/>
<path d="M40 1010 l-35 -7 43 -2 c53 -1 47 -20 -6 -22 -36 -1 -37 -1 -7 -8 30
-7 30 -7 8 -19 -24 -13 -32 -42 -12 -42 6 0 9 -7 5 -15 -6 -18 3 -19 40 -5 18
7 31 7 37 1 7 -7 -4 -17 -34 -30 -51 -23 -36 -28 17 -6 31 13 34 18 28 37 -5
13 -8 33 -9 46 0 17 -6 22 -25 22 -22 1 -23 2 -7 11 19 11 23 50 5 48 -7 -1
-29 -5 -48 -9z m36 -82 c-9 -5 -24 -7 -34 -5 -14 3 -12 6 8 14 29 12 50 5 26
-9z"/>
<path d="M2230 993 c0 -7 0 -16 -1 -20 0 -5 10 -11 23 -15 22 -6 21 -6 -4 -7
-43 -2 -38 -36 7 -51 20 -7 42 -9 50 -6 19 7 19 35 0 42 -23 9 -18 26 5 19 11
-4 20 -2 20 4 0 6 -9 11 -19 11 -11 0 -21 6 -24 13 -3 9 -7 9 -20 -1 -13 -11
-17 -10 -26 5 -6 10 -11 12 -11 6z m75 -74 c5 -5 -6 -9 -27 -9 -36 0 -54 11
-41 23 7 8 54 -2 68 -14z"/>
<path d="M2205 841 c5 -16 4 -21 -4 -17 -9 6 -41 -41 -41 -62 0 -6 11 -13 25
-16 33 -8 32 -26 -1 -26 -14 0 -23 4 -19 10 3 6 -1 10 -9 10 -9 0 -16 -4 -16
-8 0 -16 25 -32 51 -32 22 0 27 -5 26 -20 -1 -11 -8 -20 -18 -20 -9 0 -24 9
-34 20 -25 28 -40 25 -70 -15 l-27 -34 22 -31 c25 -35 19 -38 -20 -10 -46 32
-45 -1 1 -46 21 -21 39 -34 39 -30 0 4 -10 16 -22 26 -31 24 -16 37 18 16 38
-26 41 -12 5 31 -36 44 -41 66 -8 36 20 -19 60 -43 70 -43 3 0 8 7 11 16 4 11
0 14 -16 12 -15 -2 -23 2 -23 12 0 8 -8 14 -17 12 -20 -3 -29 10 -19 26 5 8
17 5 43 -13 43 -29 56 -32 37 -8 -12 15 -12 16 7 11 30 -8 54 33 33 58 -12 15
-12 16 9 10 35 -12 26 2 -18 24 -22 11 -40 25 -40 30 0 13 4 13 47 -5 50 -21
55 -18 11 6 -53 28 -49 43 10 36 l47 -6 -30 16 c-16 8 -38 23 -49 32 -18 15
-18 15 -11 -8z m-60 -161 c3 -5 1 -10 -4 -10 -6 0 -11 5 -11 10 0 6 2 10 4 10
3 0 8 -4 11 -10z m-80 -100 c3 -5 1 -10 -4 -10 -6 0 -11 5 -11 10 0 6 2 10 4
10 3 0 8 -4 11 -10z"/>
<path d="M83 840 c-27 -11 -32 -50 -7 -50 14 0 15 -2 3 -16 -12 -15 -11 -16
11 -9 36 11 73 37 63 44 -4 3 -8 13 -8 21 0 18 -31 23 -62 10z m47 -9 c0 -5
-13 -14 -30 -20 -35 -12 -41 1 -7 17 28 14 37 14 37 3z"/>
<path d="M125 764 c-39 -20 -38 -18 -24 -48 12 -26 29 -35 29 -16 0 5 14 17
31 25 17 9 29 19 26 21 -3 3 -19 -2 -37 -11 -18 -9 -35 -14 -38 -10 -7 6 2 14
45 42 27 17 3 15 -32 -3z"/>
<path d="M162 697 c-38 -39 -33 -51 13 -31 42 17 45 17 45 1 0 -19 -37 -50
-49 -42 -6 3 -11 1 -11 -4 0 -25 53 -2 70 30 14 25 -3 51 -27 42 -12 -5 -14
-1 -8 15 9 29 5 28 -33 -11z"/>
<path d="M276 595 c4 -10 0 -15 -15 -15 -12 0 -20 -6 -18 -12 1 -8 -6 -12 -16
-10 -15 3 -16 0 -9 -15 6 -10 22 -29 36 -42 25 -24 26 -24 46 -6 20 18 20 18
20 -9 0 -16 -4 -25 -10 -21 -5 3 -10 1 -10 -4 0 -6 7 -11 15 -11 8 0 15 -6 15
-14 0 -27 22 -28 49 -2 31 30 41 32 41 10 0 -10 -5 -14 -15 -10 -11 4 -15 0
-13 -12 2 -9 -3 -16 -9 -15 -15 3 -18 -13 -5 -21 5 -3 21 8 37 24 29 30 29 55
-1 67 -10 4 -30 20 -45 37 l-27 31 -32 -23 c-39 -29 -55 -18 -17 12 15 12 27
25 27 30 0 4 -14 -4 -31 -18 -17 -14 -35 -23 -41 -20 -6 4 4 18 22 34 18 15
29 33 26 39 -11 16 -26 13 -20 -4z m94 -110 c0 -8 -9 -19 -20 -25 -23 -12 -24
-11 -10 25 10 26 30 26 30 0z"/>
<path d="M2018 571 c17 -21 15 -30 -7 -24 -31 8 -34 -15 -7 -48 15 -17 24 -35
20 -40 -8 -13 -23 -2 -45 35 -10 17 -19 27 -19 23 0 -19 35 -67 53 -73 35 -11
39 11 7 51 -42 52 -38 56 10 10 22 -21 40 -35 40 -29 0 5 -5 15 -12 22 -7 7
-8 12 -2 12 6 0 15 -5 22 -12 7 -7 12 -8 12 -2 0 5 -19 28 -42 49 -24 22 -37
33 -30 26z"/>
<path d="M1885 470 c-3 -5 -1 -18 5 -29 17 -32 11 -38 -11 -11 -20 24 -20 23
1 -12 20 -36 20 -58 0 -58 -5 0 -19 18 -30 41 -12 23 -24 39 -26 36 -8 -7 50
-97 62 -97 21 0 39 29 26 42 -21 21 -13 30 10 14 24 -17 38 -20 38 -8 0 4 -14
15 -31 25 -26 14 -30 22 -25 42 6 24 -7 35 -19 15z"/>
<path d="M431 400 c-19 -16 -32 -32 -29 -35 3 -3 11 1 18 10 18 22 32 18 20
-6 -9 -17 -8 -23 7 -35 10 -7 24 -11 31 -9 6 2 12 -3 12 -13 0 -13 6 -10 26
13 l26 30 -17 -29 c-14 -23 -15 -30 -4 -37 8 -5 17 -9 21 -9 12 0 38 44 38 66
0 26 -37 39 -58 21 -12 -10 -14 -8 -8 10 11 34 -14 39 -40 7 -27 -33 -31 -26
-9 16 19 38 10 37 -34 0z m53 -44 c-9 -15 -19 -25 -21 -22 -3 2 3 16 13 30 9
15 19 25 21 22 3 -2 -3 -16 -13 -30z m86 -15 c0 -11 -39 -59 -40 -49 0 14 23
58 32 58 4 0 8 -4 8 -9z"/>
<path d="M1786 411 c-12 -19 33 -101 56 -101 15 0 8 44 -12 78 -20 32 -34 40
-44 23z m44 -41 c7 -17 10 -34 6 -37 -9 -9 -35 28 -36 50 0 27 16 20 30 -13z"/>
<path d="M1760 381 c13 -25 -5 -39 -18 -15 -7 12 -17 15 -36 10 -24 -6 -37
-26 -17 -26 5 0 16 -18 25 -40 9 -22 18 -40 21 -40 3 0 -2 16 -10 36 -19 45
-19 54 -1 54 8 0 16 -10 19 -22 4 -13 13 -32 22 -43 14 -19 15 -19 5 8 -9 25
-6 31 13 28 4 0 7 1 7 4 0 10 -30 65 -36 65 -2 0 0 -9 6 -19z"/>
<path d="M1644 334 c3 -9 6 -27 6 -40 0 -20 4 -24 19 -19 12 4 21 0 25 -11 4
-9 9 -15 11 -12 8 7 -45 98 -57 98 -6 0 -7 -7 -4 -16z"/>
<path d="M1595 330 c-10 -17 5 -67 26 -86 25 -23 24 -10 -3 26 -17 23 -19 33
-10 42 7 7 12 16 12 20 0 11 -18 10 -25 -2z"/>
<path d="M730 283 c-61 -55 -50 -139 23 -183 43 -27 53 -25 66 10 9 28 8 32
-14 40 -13 5 -29 19 -35 30 -16 29 3 50 45 50 27 0 35 5 45 31 16 38 4 49 -57
49 -33 0 -50 -7 -73 -27z"/>
<path d="M883 204 c-13 -102 -4 -138 38 -159 37 -20 62 -19 90 4 18 14 25 36
35 107 8 49 10 91 6 95 -4 4 -19 9 -33 13 -24 5 -27 2 -33 -25 -3 -17 -6 -48
-6 -68 0 -38 -22 -82 -33 -65 -3 6 -1 45 5 88 5 42 8 79 7 80 -2 2 -18 7 -35
10 l-31 7 -10 -87z"/>
<path d="M1418 274 c-37 -20 -42 -48 -27 -149 10 -70 15 -85 30 -85 32 0 49
12 49 35 0 13 4 26 9 29 12 8 1 59 -15 69 -17 10 -18 33 -3 43 16 10 27 -13
34 -71 10 -75 14 -85 38 -85 45 0 48 10 32 99 -19 108 -34 131 -83 131 -20 -1
-49 -7 -64 -16z"/>
<path d="M1080 163 c0 -51 6 -99 13 -113 18 -35 61 -48 95 -29 24 13 30 13 53
0 28 -16 69 -10 93 15 12 12 16 38 16 115 l0 99 -35 0 -34 0 -3 -82 c-2 -47
-7 -83 -13 -83 -6 0 -11 36 -13 83 l-3 82 -34 0 -35 0 0 -79 c0 -44 -4 -83
-10 -86 -6 -4 -10 25 -10 79 l0 86 -40 0 -40 0 0 -87z"/>
</g>
</svg>
